name Run_400 02_newCOP3_v24.mot
datacolumns 19
datarows 83
range 4.5925 4.6335
DataType=double
version=3
OpenSimVersion=4.3-2021-08-27-4bc7ad9
endheader
time	R_ground_force_vx	R_ground_force_vy	R_ground_force_vz	R_ground_force_px	R_ground_force_py	R_ground_force_pz	L_ground_force_vx	L_ground_force_vy	L_ground_force_vz	L_ground_force_px	L_ground_force_py	L_ground_force_pz	R_ground_torque_x	R_ground_torque_y	R_ground_torque_z	L_ground_torque_x	L_ground_torque_y	L_ground_torque_z
4.5925	0	0	0	0	0	0	-164.934769	1942.414917	-8.077859	1.207809	0	-0.309317	0	0	0	-0	2.541332	-0
4.593	0	0	0	0	0	0	-162.576385	1947.99939	-8.757854	1.20659	0	-0.309203	0	0	0	-0	2.777599	-0
4.5935	0	0	0	0	0	0	-160.232178	1953.39624	-9.426643	1.20537	0	-0.309089	0	0	0	-0	3.014248	-0
4.594	0	0	0	0	0	0	-157.902847	1958.606934	-10.083668	1.204149	0	-0.308976	0	0	0	-0	3.25117	-0
4.5945	0	0	0	0	0	0	-155.588989	1963.632568	-10.728432	1.202928	0	-0.308864	0	0	0	-0	3.488255	-0
4.595	0	0	0	0	0	0	-153.291077	1968.474609	-11.360504	1.201706	0	-0.308752	0	0	0	-0	3.725394	-0
4.5955	0	0	0	0	0	0	-151.009521	1973.134766	-11.979515	1.200483	0	-0.308641	0	0	0	-0	3.96248	-0
4.596	0	0	0	0	0	0	-148.744537	1977.61438	-12.585153	1.19926	0	-0.308532	0	0	0	-0	4.199407	-0
4.5965	0	0	0	0	0	0	-146.496307	1981.915527	-13.177161	1.198036	0	-0.308423	0	0	0	-0	4.436069	-0
4.597	0	0	0	0	0	0	-144.264862	1986.039917	-13.755342	1.196812	0	-0.308316	0	0	0	-0	4.672364	-0
4.5975	0	0	0	0	0	0	-142.05011	1989.98938	-14.319542	1.195587	0	-0.30821	0	0	0	-0	4.90819	-0
4.598	0	0	0	0	0	0	-139.851883	1993.765869	-14.869658	1.194363	0	-0.308106	0	0	0	-0	5.143446	-0
4.5985	0	0	0	0	0	0	-137.669861	1997.37146	-15.405632	1.193138	0	-0.308003	0	0	0	-0	5.378036	-0
4.599	0	0	0	0	0	0	-135.503662	2000.807861	-15.927444	1.191913	0	-0.307902	0	0	0	-0	5.611861	-0
4.5995	0	0	0	0	0	0	-133.352798	2004.077393	-16.435112	1.190689	0	-0.307803	0	0	0	-0	5.844827	-0
4.6	0	0	0	0	0	0	-131.216675	2007.181763	-16.928688	1.189464	0	-0.307706	0	0	0	-0	6.076841	-0
4.6005	0	0	0	0	0	0	-129.09465	2010.123047	-17.408255	1.18824	0	-0.307611	0	0	0	-0	6.307813	-0
4.601	0	0	0	0	0	0	-126.985962	2012.903198	-17.873919	1.187016	0	-0.307518	0	0	0	-0	6.537653	-0
4.6015	0	0	0	0	0	0	-124.889847	2015.524292	-18.325817	1.185792	0	-0.307426	0	0	0	-0	6.766276	-0
4.602	0	0	0	0	0	0	-122.805458	2017.987915	-18.764103	1.184568	0	-0.307337	0	0	0	-0	6.993595	-0
4.6025	0	0	0	0	0	0	-120.731911	2020.296265	-19.188951	1.183344	0	-0.30725	0	0	0	-0	7.219529	-0
4.603	0	0	0	0	0	0	-118.668304	2022.450928	-19.600554	1.182121	0	-0.307165	0	0	0	-0	7.443997	-0
4.6035	0	0	0	0	0	0	-116.613739	2024.453735	-19.999117	1.180898	0	-0.307082	0	0	0	-0	7.666922	-0
4.604	0	0	0	0	0	0	-114.567299	2026.306519	-20.384857	1.179675	0	-0.307001	0	0	0	-0	7.888226	-0
4.6045	0	0	0	0	0	0	-112.528069	2028.010742	-20.758005	1.178452	0	-0.306922	0	0	0	-0	8.107837999999999	-0
4.605	0	0	0	0	0	0	-110.495186	2029.568115	-21.118803	1.177228	0	-0.306844	0	0	0	-0	8.325685	-0
4.6055	0	0	0	0	0	0	-108.467796	2030.980347	-21.467499	1.176005	0	-0.306768	0	0	0	-0	8.541698	-0
4.606	0	0	0	0	0	0	-106.445091	2032.248657	-21.80435	1.174781	0	-0.306694	0	0	0	-0	8.755811	-0
4.6065	0	0	0	0	0	0	-104.426315	2033.374634	-22.129627	1.173557	0	-0.306621	0	0	0	-0	8.96796	-0
4.607	0	0	0	0	0	0	-102.410767	2034.359619	-22.443602	1.172333	0	-0.30655	0	0	0	-0	9.178083000000001	-0
4.6075	0	0	0	0	0	0	-100.397804	2035.205078	-22.746557	1.171108	0	-0.30648	0	0	0	-0	9.386120999999999	-0
4.608	0	0	0	0	0	0	-98.386833	2035.912231	-23.038782	1.169882	0	-0.306411	0	0	0	-0	9.592015999999999	-0
4.6085	0	0	0	0	0	0	-96.377357	2036.4823	-23.320576	1.168656	0	-0.306342	0	0	0	-0	9.795712999999999	-0
4.609	0	0	0	0	0	0	-94.368927	2036.916382	-23.592247	1.167428	0	-0.306275	0	0	0	-0	9.997161	-0
4.6095	0	0	0	0	0	0	-92.36114499999999	2037.21582	-23.854109	1.1662	0	-0.306208	0	0	0	-0	10.196309	-0
4.61	0	0	0	0	0	0	-90.353706	2037.381592	-24.106485	1.164971	0	-0.306141	0	0	0	-0	10.393109	-0
4.6105	0	0	0	0	0	0	-88.346352	2037.414795	-24.349714	1.16374	0	-0.306075	0	0	0	-0	10.587517	-0
4.611	0	0	0	0	0	0	-86.33886699999999	2037.316406	-24.584137	1.162509	0	-0.306009	0	0	0	-0	10.779489	-0
4.6115	0	0	0	0	0	0	-84.33112300000001	2037.087646	-24.81011	1.161276	0	-0.305942	0	0	0	-0	10.968983	-0
4.612	0	0	0	0	0	0	-82.32300600000001	2036.729248	-25.028	1.160042	0	-0.305876	0	0	0	-0	11.155963	-0
4.6125	0	0	0	0	0	0	-80.31446099999999	2036.242188	-25.23818	1.158806	0	-0.305809	0	0	0	-0	11.340391	-0
4.613	0	0	0	0	0	0	-78.305458	2035.627319	-25.441038	1.157569	0	-0.305741	0	0	0	-0	11.522234	-0
4.6135	0	0	0	0	0	0	-76.295998	2034.885742	-25.636972	1.156331	0	-0.305673	0	0	0	-0	11.70146	-0
4.614	0	0	0	0	0	0	-74.286102	2034.017944	-25.826389	1.155092	0	-0.305604	0	0	0	-0	11.878038	-0
4.6145	0	0	0	0	0	0	-72.27581000000001	2033.024902	-26.009705	1.153851	0	-0.305535	0	0	0	-0	12.051942	-0
4.615	0	0	0	0	0	0	-70.26516700000001	2031.907471	-26.187344	1.152609	0	-0.305464	0	0	0	-0	12.223145	-0
4.6155	0	0	0	0	0	0	-68.25421900000001	2030.666138	-26.359743	1.151366	0	-0.305393	0	0	0	-0	12.391625	-0
4.616	0	0	0	0	0	0	-66.243019	2029.30188	-26.52734	1.150121	0	-0.30532	0	0	0	-0	12.557361	-0
4.6165	0	0	0	0	0	0	-64.23159800000001	2027.815186	-26.690584	1.148875	0	-0.305247	0	0	0	-0	12.72033	-0
4.617	0	0	0	0	0	0	-62.219986	2026.206665	-26.84992	1.147629	0	-0.305172	0	0	0	-0	12.880518	-0
4.6175	0	0	0	0	0	0	-60.208191	2024.476929	-27.005806	1.146381	0	-0.305097	0	0	0	-0	13.037908	-0
4.618	0	0	0	0	0	0	-58.196213	2022.626709	-27.158689	1.145132	0	-0.30502	0	0	0	-0	13.192484	-0
4.6185	0	0	0	0	0	0	-56.184021	2020.656494	-27.309027	1.143883	0	-0.304942	0	0	0	-0	13.344235	-0
4.619	0	0	0	0	0	0	-54.17157	2018.56665	-27.457264	1.142632	0	-0.304864	0	0	0	-0	13.493153	-0
4.6195	0	0	0	0	0	0	-52.158787	2016.357788	-27.603846	1.141381	0	-0.304784	0	0	0	-0	13.639225	-0
4.62	0	0	0	0	0	0	-50.145584	2014.030518	-27.749205	1.140129	0	-0.304703	0	0	0	-0	13.782446	-0
4.6205	0	0	0	0	0	0	-48.131844	2011.584961	-27.893768	1.138877	0	-0.304622	0	0	0	-0	13.922809	-0
4.621	0	0	0	0	0	0	-46.117435	2009.021851	-28.037951	1.137624	0	-0.304539	0	0	0	-0	14.06031	-0
4.6215	0	0	0	0	0	0	-44.102211	2006.341553	-28.18215	1.13637	0	-0.304456	0	0	0	-0	14.194946	-0
4.622	0	0	0	0	0	0	-42.085999	2003.544434	-28.32675	1.135116	0	-0.304372	0	0	0	-0	14.326716	-0
4.6225	0	0	0	0	0	0	-40.068623	2000.630737	-28.472116	1.133862	0	-0.304287	0	0	0	-0	14.455621	-0
4.623	0	0	0	0	0	0	-38.049889	1997.601196	-28.618591	1.132607	0	-0.304202	0	0	0	-0	14.581658	-0
4.6235	0	0	0	0	0	0	-36.029598	1994.455933	-28.7665	1.131352	0	-0.304116	0	0	0	-0	14.704833	-0
4.624	0	0	0	0	0	0	-34.007557	1991.195313	-28.916142	1.130097	0	-0.30403	0	0	0	-0	14.825148	-0
4.6245	0	0	0	0	0	0	-31.983555	1987.819824	-29.067789	1.128841	0	-0.303943	0	0	0	-0	14.942607	-0
4.625	0	0	0	0	0	0	-29.957401	1984.329834	-29.221691	1.127585	0	-0.303856	0	0	0	-0	15.057216	-0
4.6255	0	0	0	0	0	0	-27.9289	1980.72583	-29.378067	1.126329	0	-0.303768	0	0	0	-0	15.168981	-0
4.626	0	0	0	0	0	0	-25.897873	1977.007935	-29.537111	1.125072	0	-0.30368	0	0	0	-0	15.277909	-0
4.6265	0	0	0	0	0	0	-23.864151	1973.176758	-29.698986	1.123815	0	-0.303592	0	0	0	-0	15.38401	-0
4.627	0	0	0	0	0	0	-21.827581	1969.232544	-29.863829	1.122558	0	-0.303503	0	0	0	-0	15.487292	-0
4.6275	0	0	0	0	0	0	-19.788031	1965.175781	-30.031744	1.1213	0	-0.303413	0	0	0	-0	15.587765	-0
4.628	0	0	0	0	0	0	-17.745388	1961.006836	-30.20281	1.120041	0	-0.303324	0	0	0	-0	15.685438	-0
4.6285	0	0	0	0	0	0	-15.699558	1956.726196	-30.377077	1.118782	0	-0.303234	0	0	0	-0	15.780325	-0
4.629	0	0	0	0	0	0	-13.650476	1952.334106	-30.554569	1.117522	0	-0.303143	0	0	0	-0	15.872436	-0
4.6295	0	0	0	0	0	0	-11.598098	1947.831177	-30.735279	1.116261	0	-0.303052	0	0	0	-0	15.961782	-0
4.63	0	0	0	0	0	0	-9.542401999999999	1943.217651	-30.919182	1.114999	0	-0.30296	0	0	0	-0	16.04838	-0
4.6305	0	0	0	0	0	0	-7.483392	1938.494019	-31.10622	1.113736	0	-0.302868	0	0	0	-0	16.132238	-0
4.631	0	0	0	0	0	0	-5.421092	1933.660645	-31.296322	1.112471	0	-0.302775	0	0	0	-0	16.213375	-0
4.6315	0	0	0	0	0	0	-3.355548	1928.71814	-31.489391	1.111206	0	-0.302681	0	0	0	-0	16.291801	-0
4.632	0	0	0	0	0	0	-1.286822	1923.666748	-31.685312	1.109938	0	-0.302586	0	0	0	-0	16.367535	-0
4.6325	0	0	0	0	0	0	0.785006	1918.506836	-31.883953	1.108669	0	-0.302491	0	0	0	-0	16.440586	-0
4.633	0	0	0	0	0	0	2.85985	1913.239014	-32.085167	1.107397	0	-0.302395	0	0	0	-0	16.510973	-0
4.6335	0	0	0	0	0	0	4.937612	1907.863525	-32.288799	1.106124	0	-0.302297	0	0	0	-0	16.578711	-0
